<?xml version="1.0" standalone="no"?>
<!DOCTYPE svg PUBLIC "-//W3C//DTD SVG 1.1//EN" "http://www.w3.org/Graphics/SVG/1.1/DTD/svg11.dtd" >
<svg xmlns="http://www.w3.org/2000/svg">
<metadata>
This is a custom SVG webfont generated by Font Squirrel.
Copyright   : Generated in 2009 by FontLab Studio Copyright info pending
Foundry     : theleagueofmoveabletypecom extended by Dannci from typethefontcom
</metadata>
<defs>
<font id="webfontGjl3ye0c" horiz-adv-x="724" >
<font-face units-per-em="2048" ascent="1505" descent="-543" />
<missing-glyph horiz-adv-x="315" />
<glyph unicode=" "  horiz-adv-x="315" />
<glyph unicode="&#x09;" horiz-adv-x="315" />
<glyph unicode="&#xa0;" horiz-adv-x="315" />
<glyph unicode="!" horiz-adv-x="387" d="M86 227h215v-227h-215v227zM74 1505h239l-55 -1099h-129z" />
<glyph unicode="&#x22;" horiz-adv-x="329" d="M88 954l-31 551h215l-30 -551h-154z" />
<glyph unicode="#" horiz-adv-x="1232" d="M76 633h198l37 258h-196l26 194h197l57 420h197l-57 -420h260l57 420h197l-58 -420h193l-27 -194h-192l-37 -258h190l-26 -195h-191l-59 -438h-197l60 438h-261l-59 -438h-197l60 438h-199zM471 633h260l37 258h-260z" />
<glyph unicode="$" horiz-adv-x="692" d="M410 1628v-125q61 -6 102 -31.5t68.5 -64.5t43 -87t21.5 -99l-192 -25q-6 51 -25.5 89t-67.5 36q-25 0 -40 -14.5t-24 -37t-14.5 -51t-5.5 -59.5q0 -43 16.5 -87t41 -86t55.5 -84l60 -81l69 -99q37 -52 67.5 -108.5t50 -117t19.5 -125.5q0 -68 -12 -130.5t-41 -112.5 t-76 -84t-116 -42v-217h-123v221q-68 12 -114 45t-74.5 80t-44 105.5t-17.5 121.5l192 13q2 -37 9.5 -71t22.5 -59.5t39 -41t58 -15.5q27 0 44.5 15.5t27.5 41t15.5 58.5t5.5 70q0 43 -16.5 87t-42 87t-55.5 83l-56 76l-72 101q-37 53 -67.5 109.5t-50 118t-19.5 124.5 q0 55 10 109.5t34.5 101.5t66.5 82t104 49v131h123z" />
<glyph unicode="%" horiz-adv-x="1001" d="M158 0l553 1505h131l-547 -1505h-137zM250 1348q0 14 -4 26q-4 10 -10.5 19.5t-20.5 9.5q-16 0 -23.5 -9.5t-11.5 -19.5q-4 -12 -2 -26v-437q-2 -16 2 -28q8 -27 35 -27q23 0 31 27q4 12 4 28v437zM825 594q0 14 -4 27q-4 10 -10 19t-20 9q-16 0 -23.5 -9t-11.5 -19 q-4 -12 -2 -27v-436q-2 -16 2 -29q4 -10 11 -19.5t24 -9.5q14 0 20 9.5t10 19.5q4 12 4 29v436zM373 911q-2 -51 -21 -88q-16 -35 -47 -61.5t-90 -26.5q-61 0 -93 26.5t-48 61.5q-18 37 -19 88v437q0 49 19 86q16 33 48 60.5t93 27.5q59 0 90 -28t47 -60q18 -37 21 -86v-437 zM948 158q-2 -51 -20 -88q-16 -33 -47 -59.5t-90 -26.5q-61 0 -93 26.5t-49 59.5q-18 37 -18 88v436q0 49 18 88q16 33 48 60.5t94 27.5q59 0 89.5 -27.5t47.5 -60.5q18 -39 20 -88v-436z" />
<glyph unicode="&#x26;" horiz-adv-x="854" d="M49 315q0 127 53.5 233.5t116.5 203.5q-53 111 -79.5 217t-26.5 225q2 92 30 164q25 61 80.5 112.5t159.5 51.5t158.5 -51.5t76.5 -112.5q27 -72 29 -164q0 -98 -58.5 -207.5t-146.5 -226.5q49 -113 84 -177.5t64 -107.5q20 57 31.5 120.5t15.5 90.5l176 -33 q-2 -20 -7 -61t-15.5 -90t-28 -103.5t-41.5 -103.5q33 -37 57.5 -54.5t34.5 -21.5v-235q-8 0 -28.5 8t-49 25.5t-63.5 43t-68 62.5q-55 -63 -118.5 -101t-133.5 -38q-66 0 -122 26.5t-96 72.5t-62.5 105t-22.5 127zM487 262l-84 136q-43 71 -90 159q-16 -27 -26 -61 q-10 -29 -18.5 -73t-6.5 -97q2 -66 29.5 -108t70.5 -42q41 0 68.5 24.5t56.5 61.5zM461 1200q2 39 -6 72q-6 29 -22.5 51.5t-49.5 22.5t-49.5 -24t-22.5 -52q-8 -35 -6 -76q0 -63 13.5 -120.5t41.5 -125.5q37 57 69 125t32 127z" />
<glyph unicode="'" horiz-adv-x="309" d="M260 1278l-113 -266h-102l72 266h-72v227h215v-227z" />
<glyph unicode="(" horiz-adv-x="561" d="M520 1505q-74 -106 -129 -239q-49 -115 -89 -271.5t-40 -349.5t40 -349.5t89 -270.5q55 -133 129 -238l-162 -84q-82 127 -147 279q-55 129 -100 300t-45 363q0 193 45 364t100 300q66 152 147 280z" />
<glyph unicode=")" horiz-adv-x="561" d="M203 1589q80 -129 145 -280q55 -129 101.5 -300t46.5 -364t-46.5 -363.5t-101.5 -299.5q-66 -152 -145 -279l-162 84q72 104 129 238q47 115 88 271.5t41 348.5q0 193 -41 349.5t-88 271.5q-57 133 -129 239z" />
<glyph unicode="*" horiz-adv-x="677" d="M262 1505h154l-19 -176l164 70l43 -148l-172 -34l115 -138l-131 -80l-78 152l-76 -152l-131 80l115 138l-172 34l43 148l164 -70z" />
<glyph unicode="+" horiz-adv-x="1060" d="M74 821h370v346h172v-346h371v-172h-371v-346h-172v346h-370v172z" />
<glyph unicode="," horiz-adv-x="309" d="M260 0l-113 -266h-102l72 266h-72v227h215v-227z" />
<glyph unicode="-" horiz-adv-x="444" d="M74 649h297v-194h-297v194z" />
<glyph unicode="." horiz-adv-x="321" d="M53 227h215v-227h-215v227z" />
<glyph unicode="/" horiz-adv-x="720" d="M551 1505h162l-537 -1652h-168z" />
<glyph unicode="0" d="M657 309q-4 -92 -36 -164q-14 -31 -36 -59.5t-52.5 -52t-72.5 -36.5t-98 -13q-55 0 -98 13t-73.5 36.5t-51 52.5t-35.5 59q-33 72 -36 164v887q4 90 36 162q14 31 35 60.5t51.5 52t73.5 37t98 14.5t97.5 -14.5t73 -37t52 -52t36.5 -60.5q33 -72 36 -162v-887zM436 1196 q0 31 -8 55q-6 20 -21.5 38t-44.5 18t-44 -17.5t-21 -38.5q-8 -25 -8 -55v-887q0 -33 8 -55q6 -23 21.5 -39t43.5 -16q29 0 44.5 16t21.5 39q8 23 8 55v887z" />
<glyph unicode="1" horiz-adv-x="475" d="M25 1180v141q70 14 113.5 45t72.5 61q31 37 49 78h133v-1505h-221v1180h-147z" />
<glyph unicode="2" horiz-adv-x="731" d="M61 1028v105q0 76 12.5 146.5t45.5 123.5t90 86t147 33q84 0 141.5 -30t91.5 -80t48 -118.5t14 -146.5q0 -115 -38 -247t-92 -260t-113.5 -238.5t-102.5 -182.5h350v-219h-600v219q102 158 185 318q35 68 67.5 143.5t59 153t44 153.5t19.5 146q0 31 -2 63.5t-10 59 t-22.5 44t-39.5 17.5q-23 0 -37 -15.5t-22 -41t-11 -58.5t-3 -69v-105h-222z" />
<glyph unicode="3" horiz-adv-x="686" d="M229 680v184q70 4 105 19.5t49 47.5t14 81v121q0 33 -1 66.5t-7 62t-20.5 47t-40.5 18.5q-20 0 -32.5 -11t-20 -41t-10.5 -79t-3 -125h-217q0 63 5 142t33 148t84 115t161 46q104 0 161.5 -45t85 -102.5t33.5 -110t6 -66.5q0 -168 -27.5 -257t-78.5 -140l-2 -2 q80 -63 103.5 -173t23.5 -241q0 -10 -2 -43t-11.5 -78t-27 -94t-49 -91t-79.5 -68.5t-118 -26.5q-104 0 -162.5 46t-87 114.5t-36 147.5t-7.5 142h217q0 -76 4.5 -125t13.5 -78.5t23.5 -41t34.5 -11.5q27 0 41 17.5t20.5 45t7.5 61.5t1 67q0 72 1 128t-12.5 95t-49.5 61.5 t-107 26.5h-19z" />
<glyph unicode="4" horiz-adv-x="684" d="M367 328h-342v194l323 983h221v-983h103v-194h-103v-328h-202v328zM213 522h154v471v45h-13l-12 -45z" />
<glyph unicode="5" horiz-adv-x="704" d="M295 379q0 -115 14.5 -159t52.5 -44q35 0 51.5 43t16.5 158v336q0 47 -17.5 78.5t-52.5 31.5q-18 0 -33.5 -12t-27.5 -29.5t-18.5 -37t-6.5 -31.5h-186v792h535v-219h-344v-313q18 14 40 26q18 10 41 18.5t46 6.5q86 0 135 -42t73.5 -95t30.5 -104.5t6 -69.5v-336 q0 -53 -7 -121t-35.5 -128t-87 -102t-159.5 -42q-102 0 -159.5 43t-86 109.5t-35.5 146t-7 155.5h221v-59z" />
<glyph unicode="6" horiz-adv-x="700" d="M643 309q0 -27 -7 -81t-36 -108t-87 -95t-159 -41q-102 0 -159.5 41t-86 95t-35.5 108.5t-7 80.5v856q0 39 6 100.5t34.5 118t86 97.5t161.5 41t161.5 -41t86.5 -97.5t35 -118t6 -100.5v-94h-221q0 76 -2 126t-8 79t-19.5 41t-38.5 12q-41 0 -54 -39t-13 -125v-268 q29 16 55.5 26.5t54.5 10.5q86 0 135.5 -38t74 -89t30.5 -105.5t6 -85.5v-307zM287 244q0 -14 14 -41t53 -27q35 0 51.5 26.5t16.5 41.5v450q0 14 -16.5 41t-51.5 27t-50 -22.5t-17 -39.5v-456z" />
<glyph unicode="7" horiz-adv-x="589" d="M340 1286h-332v219h557v-221l-221 -1284h-229z" />
<glyph unicode="8" horiz-adv-x="696" d="M643 322q0 -10 -2 -39t-10 -67t-26.5 -79t-51.5 -74.5t-83 -56t-122 -22.5t-122 22.5t-82.5 56t-51 74.5t-27 79t-10.5 66.5t-2 39.5v176q0 84 29 163.5t86 133.5q-51 51 -76.5 124.5t-25.5 151.5v127q0 14 5 66.5t32.5 110t84 102.5t160.5 45t160.5 -45t84.5 -102.5 t33 -110t5 -66.5v-127q0 -78 -25.5 -151.5t-77.5 -124.5q57 -53 86 -133t29 -164v-176zM428 410q0 135 -11 200.5t-69 65.5q-57 0 -68.5 -65.5t-11.5 -200.5q2 -123 17.5 -173.5t62.5 -50.5q57 0 68.5 60t11.5 164zM414 1120q0 104 -11.5 155.5t-54.5 51.5q-37 0 -50 -45 t-15 -162q0 -119 11 -173t54 -54t54.5 54t11.5 173z" />
<glyph unicode="9" horiz-adv-x="700" d="M57 1196q0 27 7.5 81t36 108.5t86 95.5t159.5 41q100 0 158.5 -41t87.5 -95.5t36 -108.5t7 -81v-856q0 -41 -6 -101.5t-35 -116.5t-86 -97t-162 -41q-104 0 -161.5 41t-86 97t-35 116.5t-6.5 101.5v94h222q0 -76 2 -126t8 -78.5t19.5 -41t37.5 -12.5q41 0 54.5 39 t13.5 125v283q-29 -16 -55.5 -26.5t-55.5 -10.5q-86 0 -135 38t-73.5 89t-31 105t-6.5 85v293zM414 1262q0 14 -14.5 40.5t-53.5 26.5q-35 0 -51 -26.5t-16 -40.5v-437q0 -14 16 -40.5t51 -26.5t50.5 22.5t17.5 38.5v443z" />
<glyph unicode=":" horiz-adv-x="362" d="M74 227h215v-227h-215v227zM74 1120h215v-227h-215v227z" />
<glyph unicode=";" horiz-adv-x="362" d="M74 1120h215v-227h-215v227zM289 0l-113 -266h-102l71 266h-71v227h215v-227z" />
<glyph unicode="&#x3c;" horiz-adv-x="1058" d="M74 809l911 475v-199l-698 -356l698 -356v-199l-911 475v160z" />
<glyph unicode="=" horiz-adv-x="1058" d="M74 649h911v-172h-911v172zM74 1036h911v-172h-911v172z" />
<glyph unicode="&#x3e;" horiz-adv-x="1058" d="M985 649l-911 -475v199l698 356l-698 356v199l911 -475v-160z" />
<glyph unicode="?" horiz-adv-x="645" d="M199 227h215v-227h-215v227zM211 406v256q0 82 12.5 148.5t32.5 121.5t45 99l47 83q43 72 53 113q2 10 0 25.5t-9 30.5t-21.5 26.5t-36.5 11.5q-29 0 -50.5 -16.5t-38 -40t-27.5 -49t-15 -39.5l-178 84q8 25 32.5 67.5t62.5 84.5t92 73t126 28q86 -2 139 -35.5t81 -79.5 t37 -93.5t9 -77.5q0 -63 -23.5 -113.5t-56.5 -105.5l-40 -67q-22 -36 -40 -79t-30.5 -93t-12.5 -107v-256h-190z" />
<glyph unicode="@" horiz-adv-x="872" d="M815 399h-164l-20 56q-10 -20 -27 -35q-14 -12 -35.5 -22.5t-50.5 -10.5q-82 0 -113.5 50t-31.5 122v485q0 70 31.5 120t113.5 50q29 0 50.5 -11t35.5 -23q16 -14 27 -33v45q0 16 -8.5 43t-30 52.5t-58 44t-94.5 18.5q-57 0 -94 -18.5t-58.5 -44t-29.5 -52.5t-8 -43v-889 q0 -18 8 -45t29.5 -50.5t58.5 -40.5t94 -17q66 0 105 16t63 47l152 -86q-41 -55 -116 -99t-204 -44q-113 0 -185.5 36.5t-114.5 88t-58 105.5t-16 89v889q0 37 16 93t58 108.5t115 90.5t185 38q113 0 185.5 -38t114.5 -90.5t58.5 -108.5t16.5 -93v-793zM631 1028 q0 25 -13.5 39t-35.5 14q-47 0 -47 -53v-455q0 -53 47 -53q23 0 36 12.5t13 40.5v455z" />
<glyph unicode="A" horiz-adv-x="765" d="M20 0l228 1505h270l227 -1505h-215l-41 307h-213l-40 -307h-216zM395 1016l-6 39h-12l-6 -39l-64 -475h152z" />
<glyph unicode="B" horiz-adv-x="745" d="M82 0v1505h194q98 0 174 -20.5t127.5 -67.5t77 -122.5t25.5 -188.5q0 -53 -6 -95t-22.5 -79t-43 -70t-65.5 -67q41 -23 75 -72q29 -41 53.5 -112.5t24.5 -184.5q0 -84 -16 -158.5t-55 -133t-105.5 -94.5t-165.5 -40h-272zM467 451q0 92 -19.5 140t-47 68.5t-55.5 21.5 t-42 1v-463q14 0 42 1t55.5 21.5t47 69t19.5 140.5zM467 1085q0 78 -19.5 119t-47 59.5t-55.5 20.5t-42 2v-401q14 0 42 2t55.5 20.5t47 59t19.5 118.5z" />
<glyph unicode="C" horiz-adv-x="708" d="M657 516v-207q-4 -92 -36 -164q-14 -31 -36 -59.5t-52.5 -52t-72.5 -36.5t-98 -13q-55 0 -98 13t-73.5 36.5t-51 52.5t-35.5 59q-33 72 -36 164v887q4 90 36 162q14 31 35 60.5t51.5 52t73.5 37t98 14.5t97.5 -14.5t73 -37t52 -52t36.5 -60.5q33 -72 36 -162v-207h-206 v207q0 31 -9 55q-8 20 -24.5 38t-50.5 18q-29 0 -44.5 -17.5t-23.5 -38.5q-8 -25 -10 -55v-887q2 -33 10 -55q8 -23 23.5 -39t44.5 -16q35 0 51 16t24 39t9 55v207h206z" />
<glyph unicode="D" horiz-adv-x="761" d="M696 752q0 -221 -11 -365.5t-55 -230.5t-132 -121t-242 -35h-174v1505h174q154 0 242 -34.5t132 -120.5t55 -231.5t11 -366.5zM303 221q57 0 91 13.5t50.5 67.5t19.5 160.5t3 291.5q0 184 -3 289.5t-19.5 159.5t-50.5 67.5t-91 13.5v-1063z" />
<glyph unicode="E" horiz-adv-x="628" d="M82 1505h506v-227h-285v-395h205v-242h-205v-414h285v-227h-506v1505z" />
<glyph unicode="F" horiz-adv-x="616" d="M608 1278h-305v-395h205v-228h-205v-655h-221v1505h526v-227z" />
<glyph unicode="G" horiz-adv-x="737" d="M436 965v231q0 31 -8 55q-6 20 -21.5 38t-44.5 18t-44 -17.5t-21 -38.5q-8 -25 -8 -55v-905q0 -33 8 -55q6 -23 21.5 -39.5t43.5 -16.5q29 0 44.5 16.5t21.5 39.5q8 23 8 55v272h-88v187h309v-750h-131l-26 72q-31 -39 -75 -63.5t-97 -24.5t-92 13t-67 36.5t-46.5 52.5 t-30.5 59q-25 67 -25 151q0 6 1 13v887q4 90 36 162q14 31 35 60.5t51.5 52t73.5 37t98 14.5t97.5 -14.5t73 -37t52 -52t36.5 -60.5q33 -72 36 -162v-231h-221z" />
<glyph unicode="H" horiz-adv-x="778" d="M475 655h-172v-655h-221v1505h221v-622h172v622h221v-1505h-221v655z" />
<glyph unicode="I" horiz-adv-x="385" d="M82 1505h221v-1505h-221v1505z" />
<glyph unicode="J" horiz-adv-x="423" d="M12 203q33 -4 60 4q23 8 41 31.5t18 74.5v1192h221v-1226q0 -61 -16.5 -117t-55 -96.5t-104.5 -63.5q-51 -18 -123 -18q-20 0 -41 2v217z" />
<glyph unicode="K" horiz-adv-x="768" d="M303 1505v-501v-25h8l11 25l184 501h215l-203 -495l230 -1010h-216l-153 655l-6 31h-6l-13 -31l-51 -123v-532h-221v1505h221z" />
<glyph unicode="L" horiz-adv-x="604" d="M82 1505h221v-1300h293v-205h-514v1505z" />
<glyph unicode="M" horiz-adv-x="991" d="M449 0l-142 946l-8 64h-12v-64v-946h-205v1505h270l131 -688l11 -80h4l10 80l131 688h270v-1505h-204v946v64h-13l-8 -64l-141 -946h-94z" />
<glyph unicode="N" horiz-adv-x="808" d="M315 784l-18 70h-12v-70v-784h-203v1505h197l215 -784l18 -70h12v70v784h203v-1505h-197z" />
<glyph unicode="O" d="M657 309q-4 -92 -36 -164q-14 -31 -36 -59.5t-52.5 -52t-72.5 -36.5t-98 -13q-55 0 -98 13t-73.5 36.5t-51 52.5t-35.5 59q-33 72 -36 164v887q4 90 36 162q14 31 35 60.5t51.5 52t73.5 37t98 14.5t97.5 -14.5t73 -37t52 -52t36.5 -60.5q33 -72 36 -162v-887zM436 1196 q0 31 -8 55q-6 20 -21.5 38t-44.5 18t-44 -17.5t-21 -38.5q-8 -25 -8 -55v-887q0 -33 8 -55q6 -23 21.5 -39t43.5 -16q29 0 44.5 16t21.5 39q8 23 8 55v887z" />
<glyph unicode="P" horiz-adv-x="720" d="M82 1505h221q72 0 141.5 -21.5t125 -73.5t89 -139t33.5 -216t-33.5 -216t-89 -139.5t-125 -75t-141.5 -22.5v-602h-221v1505zM303 827q51 0 84 10.5t51.5 36t24.5 67.5t6 106q0 63 -6 107t-24.5 71.5t-51.5 41t-84 13.5v-453z" />
<glyph unicode="Q" horiz-adv-x="729" d="M657 309q0 -27 -6 -57q-4 -27 -13 -59.5t-26 -65.5q14 -18 35 -32.5t53 -20.5v-189q-94 0 -146 35t-81 82q-23 -8 -50.5 -13t-60.5 -5q-55 0 -98 13t-73.5 36.5t-51 52.5t-35.5 59q-33 72 -36 164v887q4 90 36 162q14 31 35 60.5t51.5 52t73.5 37t98 14.5t97.5 -14.5 t73 -37t52 -52t36.5 -60.5q33 -72 36 -162v-887zM436 1196q0 31 -8 55q-6 20 -21.5 38t-44.5 18t-44 -17.5t-21 -38.5q-8 -25 -8 -55v-887q0 -33 8 -55q6 -23 21.5 -39t43.5 -16q29 0 44.5 16t21.5 39q8 23 8 55v887z" />
<glyph unicode="R" horiz-adv-x="739" d="M477 0l-115 635h-59v-635h-221v1505h221q199 0 288 -110.5t89 -323.5q0 -113 -29.5 -206t-93.5 -136l141 -729h-221zM467 1063q0 80 -17.5 125t-42 66.5t-53 26.5t-51.5 5v-446q23 0 51.5 5t53 26.5t42 66.5t17.5 125z" />
<glyph unicode="S" horiz-adv-x="702" d="M68 1169q0 61 15 124t50 113t90.5 82t132.5 34h11q93 0 150 -36q60 -38 93 -98.5t44.5 -131t11.5 -134.5l-217 -20q0 37 -3.5 76t-13.5 70.5t-27.5 51t-44.5 19.5q-43 -2 -59 -43t-16 -107q0 -39 15 -78.5t40 -82.5t55 -88l64 -93l76 -114q37 -57 65.5 -114.5t47 -116 t18.5 -120.5q0 -76 -14.5 -144t-49.5 -120.5t-94 -83t-150 -30.5q-106 0 -169.5 36.5t-97.5 98t-44 140.5t-10 163l217 20q0 -47 3 -93t14.5 -82t32 -58.5t54.5 -22.5q49 0 70 47.5t21 118.5q0 37 -16.5 79t-42 86t-57.5 90l-63 93l-75 115q-37 57 -65 115.5t-45 118 t-17 120.5z" />
<glyph unicode="T" horiz-adv-x="647" d="M4 1278v227h639v-227h-209v-1278h-221v1278h-209z" />
<glyph unicode="U" horiz-adv-x="749" d="M670 1505v-1196q-4 -92 -37 -164q-14 -31 -36 -59.5t-52.5 -52t-72.5 -36.5t-97 -13t-98.5 13t-74 36.5t-51 52.5t-34.5 59q-33 72 -37 164v1196h221v-1196q0 -33 8 -55q6 -23 21.5 -39t44.5 -16t44 16t21 39q8 23 9 55v1196h221z" />
<glyph unicode="V" horiz-adv-x="716" d="M483 1505h215l-229 -1505h-221l-230 1505h215l111 -827l8 -64h13l8 64z" />
<glyph unicode="W" horiz-adv-x="1036" d="M399 0h-172l-202 1505h204l88 -782l5 -49h16l6 49l94 782h160l94 -782l6 -49h17l4 49l88 782h205l-203 -1505h-172l-102 713l-13 88h-8l-12 -88z" />
<glyph unicode="X" horiz-adv-x="737" d="M233 0h-217l244 791l-240 714h218l120 -381l7 -18h8l6 18l121 381h217l-240 -714l244 -791h-217l-127 449l-4 18h-8l-5 -18z" />
<glyph unicode="Y" horiz-adv-x="700" d="M342 1024l6 -14h4l6 14l111 481h217l-225 -864v-641h-221v641l-226 864h217z" />
<glyph unicode="Z" horiz-adv-x="626" d="M20 238l347 1048h-297v219h536v-219l-352 -1067h352v-219h-586v238z" />
<glyph unicode="[" horiz-adv-x="538" d="M481 1309h-202v-1325h202v-197h-399v197v1521h399v-196z" />
<glyph unicode="\" horiz-adv-x="792" d="M784 -180h-168l-608 1872h162z" />
<glyph unicode="]" horiz-adv-x="538" d="M57 1505h400v-1521v-197h-400v197h203v1325h-203v196z" />
<glyph unicode="^" horiz-adv-x="1101" d="M668 1505l381 -696h-199l-299 543l-299 -543h-199l381 696h234z" />
<glyph unicode="_" horiz-adv-x="1210" d="M74 -154h1063v-172h-1063v172z" />
<glyph unicode="`" horiz-adv-x="1024" d="M508 1489l106 -184h-159l-162 184h215z" />
<glyph unicode="a" horiz-adv-x="681" d="M252 291q0 -10 2 -27.5t8 -35t17.5 -30t29.5 -12.5q35 0 60.5 19.5t25.5 48.5v287q-76 -33 -109.5 -101.5t-33.5 -148.5zM49 260q0 94 24.5 161.5t61.5 114t80 77t82 51t65.5 36t32.5 31.5v37v86q0 14 -1 32.5t-6 34t-17.5 25.5t-32.5 10q-27 0 -39 -17t-16 -42t-4 -53 v-53h-207v47q0 61 21.5 115.5t58 95.5t88 64.5t110.5 23.5q51 0 96.5 -19.5t80 -53.5t55 -80t20.5 -101v-351v-337q0 -76 4 -117t10 -78h-202q-14 16 -16.5 48t-2.5 42h-14q-8 -14 -22.5 -32.5t-36 -35t-49 -27.5t-58.5 -11q-20 0 -49 10t-54.5 39.5t-44 84t-18.5 142.5z " />
<glyph unicode="b" horiz-adv-x="686" d="M82 1505h207v-458q27 25 53 45q23 16 52.5 30.5t58.5 14.5q43 0 72.5 -21.5t49 -53.5t28.5 -71t9 -73v-715q0 -35 -9 -74t-28.5 -70.5t-49 -53t-72.5 -21.5q-29 0 -58.5 14t-52.5 31q-27 20 -53 45v-74h-207v1505zM289 246q0 -29 19.5 -48.5t41.5 -19.5q23 0 39.5 19.5 t16.5 48.5v628q0 29 -16.5 48.5t-39.5 19.5t-42 -21.5t-19 -46.5v-628z" />
<glyph unicode="c" horiz-adv-x="645" d="M272 258q0 -31 8.5 -60.5t49.5 -29.5q35 0 47 19.5t12 70.5v156h207v-109q0 -94 -17.5 -155.5t-51 -98.5t-83 -52t-114.5 -15q-55 0 -104.5 16t-84.5 55t-55 102.5t-20 157.5v490q0 94 20 157.5t55 102.5t84 55.5t105 16.5q66 0 115 -15.5t82.5 -52.5t51 -98.5 t17.5 -155.5v-88h-207v135q0 51 -12 70.5t-47 19.5q-41 0 -49.5 -29.5t-8.5 -60.5v-604z" />
<glyph unicode="d" horiz-adv-x="686" d="M604 0h-207v74q-27 -25 -53 -45q-23 -16 -52.5 -30.5t-58.5 -14.5q-43 0 -72.5 21.5t-49 53t-28.5 70.5t-9 74v715q0 35 9 73.5t28.5 70.5t49 53.5t72.5 21.5q29 0 59 -14.5t52 -30.5q27 -20 53 -45v458h207v-1505zM397 874q0 25 -19.5 46.5t-41.5 21.5q-23 0 -39 -19.5 t-16 -48.5v-628q0 -29 16 -48.5t39 -19.5t42 19.5t19 48.5v628z" />
<glyph unicode="e" horiz-adv-x="659" d="M600 401v-129q-4 -82 -33 -145q-25 -53 -80 -98t-155 -45t-154.5 46t-79.5 101q-29 66 -32 148v563q4 82 34 147q25 55 79 101.5t155 46.5q100 0 154.5 -46.5t78.5 -99.5q29 -63 33 -143v-326h-342v-243q2 -33 10 -58q8 -23 22.5 -39t43.5 -16t44 16.5t21 38.5q8 25 9 58 v122h192zM258 684h150v158q0 33 -9 57q-6 23 -21.5 40t-43.5 17q-29 0 -43.5 -17t-22.5 -40q-8 -25 -10 -57v-158z" />
<glyph unicode="f" horiz-adv-x="475" d="M125 0v934h-105v186h105v17v14q0 43 4 105.5t25.5 120t69.5 97t138 39.5q25 0 42.5 -2t29.5 -6l25 -6v-178q-10 2 -19 4q-20 4 -43 4q-27 0 -40 -20.5t-19 -50t-6 -60.5v-49v-16v-13h104v-186h-104v-934h-207z" />
<glyph unicode="g" horiz-adv-x="700" d="M588 541q-4 -78 -35 -140q-27 -53 -81 -95t-150 -42h-20q-9 0 -19 2q-29 -25 -29 -51q0 -18 14.5 -29.5t37 -18.5t50 -12l56.5 -10q49 -6 99 -20t92 -43t68.5 -76t26.5 -121q0 -82 -31.5 -137t-81.5 -88t-113.5 -47t-127.5 -14q-74 2 -135.5 13t-105.5 35.5t-67.5 65.5 t-23.5 103q0 29 14.5 53.5t37 46t52 38.5t58.5 32q-51 14 -88 49t-37 100q0 25 12.5 49.5t31 47t41 41t44.5 30.5q-45 29 -68.5 71t-33.5 81q-12 45 -17 92v305q6 78 35 141q25 53 78 98.5t150 45.5q78 0 128 -31t78 -72l29 28q18 17 42 33.5t49.5 29t49.5 12.5v-185 q-41 0 -71.5 -7t-48.5 -17q4 -16 5 -27.5t3 -21.5t2 -21v-317zM385 844q0 29 -6 51q-6 18 -18.5 34.5t-38.5 16.5q-25 0 -38.5 -16.5t-17.5 -34.5q-6 -23 -4 -51v-307q-2 -29 4 -52q4 -18 17.5 -33.5t38.5 -15.5q27 0 39 15.5t18 33.5q6 23 6 52v307zM506 -152q0 14 -3 25.5 t-14.5 22t-33 18.5t-60.5 14l-106 21q-33 -18 -54.5 -42t-21.5 -57t31.5 -55t103.5 -22q27 0 54.5 4t50 13t38 23.5t15.5 34.5z" />
<glyph unicode="h" horiz-adv-x="690" d="M356 936q-16 0 -27.5 -8t-21.5 -19q-10 -12 -18 -26v-883h-207v1505h207v-479q6 4 23.5 21.5t40 38t50 36t54.5 15.5q41 0 70.5 -21.5t48 -53.5t27.5 -71t9 -73v-918h-206v887q0 33 -16 41t-34 8z" />
<glyph unicode="i" horiz-adv-x="370" d="M82 0v1120h207v-1120h-207zM82 1505h207v-207h-207v207z" />
<glyph unicode="j" horiz-adv-x="364" d="M76 1505h207v-207h-207v207zM283 1120v-1149q0 -43 -4.5 -104.5t-26 -117.5t-70.5 -95t-137 -39q-49 0 -70 6q-12 2 -20 6v191q10 -2 18 -4q20 -4 39 -4q27 0 40.5 18t18.5 44t5 54v47v1147h207z" />
<glyph unicode="k" horiz-adv-x="641" d="M289 1505v-678v-36h10l12 36l101 293h186l-149 -364l188 -756h-199l-102 453l-4 16h-10l-7 -16l-26 -66v-387h-207v1505h207z" />
<glyph unicode="l" horiz-adv-x="370" d="M82 0v1505h207v-1505h-207z" />
<glyph unicode="m" horiz-adv-x="1021" d="M694 936q-16 0 -30.5 -8t-24.5 -19q-12 -12 -23 -26v-883h-194v887q0 33 -19.5 41t-35.5 8t-30.5 -8t-25.5 -19q-12 -12 -22 -26v-883h-207v1120h207v-94q6 4 23.5 21.5t42 38t52 36t54.5 15.5q55 0 89 -38t50 -87q12 8 32.5 29.5t46.5 42t54.5 37t54.5 16.5 q41 0 71 -21.5t48.5 -53.5t27.5 -71t9 -73v-918h-194v887q0 33 -20 41t-36 8z" />
<glyph unicode="n" horiz-adv-x="690" d="M356 936q-16 0 -27.5 -8t-21.5 -19q-10 -12 -18 -26v-883h-207v1120h207v-94q6 4 23.5 21.5t40 38t50 36t54.5 15.5q41 0 70.5 -21.5t48 -53.5t27.5 -71t9 -73v-918h-206v887q0 33 -16 41t-34 8z" />
<glyph unicode="o" horiz-adv-x="657" d="M594 272q-4 -82 -33 -145q-25 -53 -79 -98t-154 -45t-153.5 46t-78.5 101q-29 66 -33 148v563q4 82 33 147q25 55 78 101.5t154 46.5q100 0 154.5 -46.5t78.5 -99.5q29 -63 33 -143v-576zM399 842q0 7 1 13q0 25 -7 44q-6 23 -21.5 40t-43.5 17q-29 0 -43.5 -17 t-20.5 -40q-7 -20 -6 -44v-13v-563v-13q0 -25 6 -45q6 -23 20.5 -39t43.5 -16t44 16.5t21 38.5q7 20 7 45q0 6 -1 13v563z" />
<glyph unicode="p" horiz-adv-x="686" d="M82 1120h207v-73q27 25 53 45q23 16 52.5 30.5t58.5 14.5q43 0 72.5 -21.5t49 -53.5t28.5 -71t9 -73v-715q0 -35 -9 -74t-28.5 -70.5t-49 -53t-72.5 -21.5q-29 0 -58.5 14t-52.5 31q-27 20 -53 45v-459h-207v1505zM289 246q0 -25 19.5 -46.5t41.5 -21.5q23 0 39.5 19.5 t16.5 48.5v628q0 29 -16.5 48.5t-39.5 19.5t-42 -19.5t-19 -48.5v-628z" />
<glyph unicode="q" horiz-adv-x="686" d="M604 -385h-207v459q-27 -25 -53 -45q-23 -16 -52.5 -30.5t-58.5 -14.5q-43 0 -72.5 21.5t-49 53t-28.5 70.5t-9 74v715q0 35 9 73.5t28.5 70.5t49 53.5t72.5 21.5q29 0 59 -14.5t52 -30.5q27 -20 53 -45v73h207v-1505zM397 874q0 29 -19.5 48.5t-41.5 19.5 q-23 0 -39 -19.5t-16 -48.5v-628q0 -29 16 -48.5t39 -19.5t42 21.5t19 46.5v628z" />
<glyph unicode="r" horiz-adv-x="503" d="M496 907q-29 8 -58 8q-25 0 -52.5 -6t-51.5 -28q-29 -25 -37 -50.5t-8 -52.5v-778h-207v1120h207v-125q2 10 13 34t35.5 47.5t62.5 42t96 18.5v-230z" />
<glyph unicode="s" horiz-adv-x="630" d="M72 834q0 49 11 102t40 97t78 73t123 31h11q82 0 132 -28q53 -30 79.5 -75t34 -99t7.5 -101h-193q0 20 -1 42.5t-8 42t-20.5 33t-37.5 13.5q-20 0 -32.5 -13.5t-20 -32t-9.5 -42t-2 -43.5q0 -27 12.5 -53.5t32 -51t43 -49.5t47.5 -47l68 -70q35 -37 61.5 -79t44 -90 t17.5 -103q0 -53 -13.5 -107.5t-45 -98.5t-82 -72.5t-123.5 -28.5q-94 0 -151.5 36.5t-88.5 89t-40 112t-9 104.5h192q0 -23 3.5 -52.5t13.5 -55t28.5 -44t51.5 -18.5q45 0 58 43t13 92q0 51 -41 101t-88 97l-71 70q-35 35 -63 76t-45 89.5t-17 109.5z" />
<glyph unicode="t" horiz-adv-x="501" d="M332 1397v-277h141v-186h-141v-557q0 -27 1 -58.5t7 -59.5t19.5 -47t37.5 -19q12 0 26.5 1t25.5 3l24 4v-203q-14 -4 -31 -8q-31 -6 -80 -6q-90 0 -138 39.5t-69.5 98t-25.5 124t-4 114.5v574h-105v186h105v277h207z" />
<glyph unicode="u" horiz-adv-x="690" d="M334 184q16 0 27.5 8.5t21.5 18.5t18 27v882h207v-1120h-207v94q-6 -4 -23.5 -21.5t-40 -38t-50 -35.5t-54.5 -15q-41 0 -70.5 21.5t-48 53t-27.5 70.5t-9 74v917h207v-887q0 -33 15.5 -41t33.5 -8z" />
<glyph unicode="v" horiz-adv-x="602" d="M199 0l-183 1120h201l68 -649l8 -72h16l8 72l68 649h201l-183 -1120h-204z" />
<glyph unicode="w" horiz-adv-x="905" d="M547 0l-80 535l-10 63h-8l-11 -63l-80 -535h-172l-166 1120h189l65 -585l9 -64h12l10 64l86 585h123l86 -585l10 -64h13l8 64l65 585h189l-166 -1120h-172z" />
<glyph unicode="x" horiz-adv-x="618" d="M209 578l-176 542h194l74 -262l6 -31h4l6 31l74 262h195l-176 -542l192 -578h-201l-84 283l-6 30h-4l-6 -30l-84 -283h-201z" />
<glyph unicode="y" horiz-adv-x="634" d="M33 -213q4 -2 12 -2q8 -2 37 -2q33 2 57.5 20.5t41 44t25.5 57.5t9 62l-190 1153h202l82 -688l4 -57h9l4 57l82 688h202l-198 -1204q-8 -59 -31 -115.5t-59.5 -101.5t-86 -72.5t-110.5 -27.5h-25q-14 0 -30 2q-18 0 -37 2v184z" />
<glyph unicode="z" horiz-adv-x="532" d="M12 168l285 764h-240v188h459v-168l-285 -764h285v-188h-504v168z" />
<glyph unicode="{" horiz-adv-x="688" d="M193 1153q0 115 23.5 187.5t75.5 113.5t136 55.5t203 12.5v-172q-66 0 -112 -7.5t-74.5 -30t-42 -60.5t-13.5 -99v-397q0 -82 -33.5 -133.5t-93.5 -87.5q59 -39 93 -90.5t34 -131.5v-397q0 -61 13.5 -99t42 -60.5t74.5 -30t112 -7.5v-172q-119 -2 -203 12.5t-136 55.5 t-75.5 113.5t-23.5 187.5v397q0 10 -5.5 32t-19.5 45.5t-40 42t-67 20.5v163q41 0 67 17.5t40 41t19.5 47t5.5 34.5v397z" />
<glyph unicode="|" horiz-adv-x="356" d="M82 -512v2204h192v-2204h-192z" />
<glyph unicode="}" horiz-adv-x="688" d="M496 756q0 -10 5 -34t19.5 -47.5t40 -41t66.5 -17.5v-163q-41 -2 -66.5 -20.5t-40 -42t-19.5 -45t-5 -32.5v-397q0 -115 -23.5 -187.5t-76 -113.5t-136.5 -55.5t-203 -12.5v172q66 0 112 7.5t74.5 30t42 60.5t13.5 99v397q0 80 34 131.5t93 90.5q-59 37 -93 88t-34 133 v397q0 61 -13.5 99t-42 60.5t-74.5 30t-112 7.5v172q119 2 203 -12.5t136.5 -55.5t76 -113.5t23.5 -187.5v-397z" />
<glyph unicode="~" horiz-adv-x="1280" d="M449 1475q-53 0 -91.5 -28t-62.5 -63q-29 -39 -47 -90l-135 58q29 86 77 153q41 57 104.5 105.5t154.5 48.5q92 0 154.5 -33t121.5 -70q41 -29 84 -50t90 -21t84 27.5t59 62.5q27 39 48 92l135 -57q-33 -88 -80 -156q-41 -59 -101.5 -106.5t-144.5 -47.5q-86 0 -149.5 31 t-122.5 70q-43 29 -87 51.5t-91 22.5z" />
<glyph unicode="&#xa1;" horiz-adv-x="387" d="M86 1120h215v-227h-215v227zM129 715h129l55 -1100h-239z" />
<glyph unicode="&#xa2;" horiz-adv-x="636" d="M397 1567v-244q47 -8 83 -28.5t59.5 -57.5t36 -93.5t12.5 -135.5v-88h-189v135q0 51 -19.5 70.5t-53.5 19.5q-41 0 -56.5 -30t-15.5 -60v-604q0 -31 15.5 -61t56.5 -30q35 0 54 19.5t19 71.5v155h189v-108q0 -160 -48 -231.5t-143 -86.5v-303h-123v301q-92 14 -150 89 t-58 241v489q0 164 58 239t150 89v242h123z" />
<glyph unicode="&#xa3;" horiz-adv-x="817" d="M510 1120q0 37 -5 73t-17.5 63.5t-35 44t-57.5 16.5q-25 0 -42 -15.5t-28.5 -40t-15.5 -54t-4 -58.5q0 -82 21.5 -167t48.5 -171l6 -25h211v-137h-174q25 -102 24 -174q0 -41 -14 -100.5t-43 -118.5q39 -18 68.5 -37.5t64.5 -21.5q29 2 53.5 44t28.5 146l188 -22 q-12 -188 -82.5 -284.5t-168.5 -96.5q-37 0 -73 16t-71 35l-67 35q-33 16 -62 16t-50 -16.5t-36 -34.5q-18 -23 -28 -51l-146 79q23 51 53 97q27 37 66 71.5t92 44.5q16 47 26.5 101.5t10.5 97.5q0 39 -8 83t-23 91h-188v137h147l-6 21q-29 96 -53.5 187t-24.5 155 q0 63 14.5 130t49.5 120t91 87t140 36q100 2 165 -33t101.5 -91.5t51 -129t14.5 -148.5h-213z" />
<glyph unicode="&#xa5;" horiz-adv-x="720" d="M74 477h176v137h-176v138h147l-196 753h217l110 -481l6 -14h4l7 14l110 481h217l-196 -753h147v-138h-176v-137h176v-137h-176v-340h-221v340h-176v137z" />
<glyph unicode="&#xa8;" horiz-adv-x="1024" d="M272 1505h191v-200h-191v200zM561 1505h191v-200h-191v200z" />
<glyph unicode="&#xa9;" horiz-adv-x="1644" d="M53 752q0 160 60.5 300t165 244.5t245 165t297.5 60.5q160 0 300.5 -60.5t244.5 -165t164.5 -245t60.5 -299.5q0 -158 -60.5 -298.5t-164.5 -245t-244.5 -164.5t-300.5 -60q-158 0 -298 60t-244.5 164.5t-165 245t-60.5 298.5zM1008 612v-125q-4 -55 -25 -98 q-18 -37 -55 -67.5t-109 -30.5q-74 0 -112.5 30.5t-57.5 67.5q-23 43 -22 98v531q0 55 22 98q18 37 57 67.5t113 30.5q72 0 109 -30.5t55 -67.5q20 -43 25 -98v-125h-138v125q2 16 -4 31q-4 12 -14 22t-31 10q-18 0 -28.5 -10t-14.5 -22q-6 -14 -6 -31v-531q0 -18 6 -32 q4 -12 14.5 -21.5t28.5 -9.5q20 0 30.5 9t14.5 22q6 14 4 32v125h138zM172 752q0 -133 51 -251t140.5 -207t207 -140.5t250.5 -51.5t252 51.5t208 140.5t140.5 206.5t51.5 251.5q0 133 -51.5 251.5t-140.5 207.5t-208 140.5t-252 51.5t-250.5 -51.5t-207 -140.5 t-140.5 -207.5t-51 -251.5z" />
<glyph unicode="&#xaa;" horiz-adv-x="681" d="M252 291q0 -10 2 -27.5t8 -35t17.5 -30t29.5 -12.5q35 0 60.5 19.5t25.5 48.5v287q-76 -33 -109.5 -101.5t-33.5 -148.5zM49 260q0 94 24.5 161.5t61.5 114t80 77t82 51t65.5 36t32.5 31.5v37v86q0 14 -1 32.5t-6 34t-17.5 25.5t-32.5 10q-27 0 -39 -17t-16 -42t-4 -53 v-53h-207v47q0 61 21.5 115.5t58 95.5t88 64.5t110.5 23.5q51 0 96.5 -19.5t80 -53.5t55 -80t20.5 -101v-351v-337q0 -76 4 -117t10 -78h-202q-14 16 -16.5 48t-2.5 42h-14q-8 -14 -22.5 -32.5t-36 -35t-49 -27.5t-58.5 -11q-20 0 -49 10t-54.5 39.5t-44 84t-18.5 142.5z " />
<glyph unicode="&#xad;" horiz-adv-x="444" d="M74 649h297v-194h-297v194z" />
<glyph unicode="&#xae;" horiz-adv-x="1644" d="M821 1192q123 0 177.5 -68.5t54.5 -189.5q0 -66 -13.5 -118t-74.5 -103l106 -400h-151l-95 365h-55v-365h-145v879h196zM770 1063v-258h45q33 0 53.5 11t29.5 29.5t12 41t3 45.5t-3 46t-12 41.5t-29.5 31t-53.5 12.5h-45zM53 752q0 160 60.5 300t165 244.5t245 165 t297.5 60.5q160 0 300.5 -60.5t244.5 -165t164.5 -245t60.5 -299.5q0 -158 -60.5 -298.5t-164.5 -245t-244.5 -164.5t-300.5 -60q-158 0 -298 60t-244.5 164.5t-165 245t-60.5 298.5zM172 752q0 -133 51 -251t140.5 -207t207 -140.5t250.5 -51.5t252 51.5t208 140.5 t140.5 206.5t51.5 251.5q0 133 -51.5 251.5t-140.5 207.5t-208 140.5t-252 51.5t-250.5 -51.5t-207 -140.5t-140.5 -207.5t-51 -251.5z" />
<glyph unicode="&#xaf;" horiz-adv-x="1024" d="M313 1477h398v-162h-398v162z" />
<glyph unicode="&#xb2;" horiz-adv-x="731" d="M61 1028v105q0 76 12.5 146.5t45.5 123.5t90 86t147 33q84 0 141.5 -30t91.5 -80t48 -118.5t14 -146.5q0 -115 -38 -247t-92 -260t-113.5 -238.5t-102.5 -182.5h350v-219h-600v219q102 158 185 318q35 68 67.5 143.5t59 153t44 153.5t19.5 146q0 31 -2 63.5t-10 59 t-22.5 44t-39.5 17.5q-23 0 -37 -15.5t-22 -41t-11 -58.5t-3 -69v-105h-222z" />
<glyph unicode="&#xb3;" horiz-adv-x="686" d="M229 680v184q70 4 105 19.5t49 47.5t14 81v121q0 33 -1 66.5t-7 62t-20.5 47t-40.5 18.5q-20 0 -32.5 -11t-20 -41t-10.5 -79t-3 -125h-217q0 63 5 142t33 148t84 115t161 46q104 0 161.5 -45t85 -102.5t33.5 -110t6 -66.5q0 -168 -27.5 -257t-78.5 -140l-2 -2 q80 -63 103.5 -173t23.5 -241q0 -10 -2 -43t-11.5 -78t-27 -94t-49 -91t-79.5 -68.5t-118 -26.5q-104 0 -162.5 46t-87 114.5t-36 147.5t-7.5 142h217q0 -76 4.5 -125t13.5 -78.5t23.5 -41t34.5 -11.5q27 0 41 17.5t20.5 45t7.5 61.5t1 67q0 72 1 128t-12.5 95t-49.5 61.5 t-107 26.5h-19z" />
<glyph unicode="&#xb4;" horiz-adv-x="1024" d="M731 1489l-162 -184h-159l106 184h215z" />
<glyph unicode="&#xb7;" horiz-adv-x="215" d="M0 877h215v-228h-215v228z" />
<glyph unicode="&#xb8;" horiz-adv-x="1024" d="M598 -252l-45 -133h-104l40 133h-63v141h172v-141z" />
<glyph unicode="&#xb9;" horiz-adv-x="475" d="M25 1180v141q70 14 113.5 45t72.5 61q31 37 49 78h133v-1505h-221v1180h-147z" />
<glyph unicode="&#xba;" horiz-adv-x="657" d="M594 272q-4 -82 -33 -145q-25 -53 -79 -98t-154 -45t-153.5 46t-78.5 101q-29 66 -33 148v563q4 82 33 147q25 55 78 101.5t154 46.5q100 0 154.5 -46.5t78.5 -99.5q29 -63 33 -143v-576zM399 842q0 7 1 13q0 25 -7 44q-6 23 -21.5 40t-43.5 17q-29 0 -43.5 -17 t-20.5 -40q-7 -20 -6 -44v-13v-563v-13q0 -25 6 -45q6 -23 20.5 -39t43.5 -16t44 16.5t21 38.5q7 20 7 45q0 6 -1 13v563z" />
<glyph unicode="&#xbf;" horiz-adv-x="645" d="M446 893h-215v227h215v-227zM434 715v-256q0 -82 -13 -148.5t-32.5 -122t-44.5 -99.5l-47 -83q-43 -72 -53 -112q-2 -10 0 -25.5t9 -31t21.5 -27t36.5 -11.5q27 0 49.5 16.5t39 40t27.5 48t15 41.5l179 -84q-10 -25 -34 -68t-62 -85t-93 -72.5t-125 -28.5 q-86 2 -139 35.5t-81 80t-37 93.5t-9 78q0 63 23.5 113t56.5 106l40 66q22 36 40 79t30.5 93t12.5 108v256h190z" />
<glyph unicode="&#xc0;" horiz-adv-x="765" d="M20 0l228 1505h270l227 -1505h-215l-41 307h-213l-40 -307h-216zM395 1016l-6 39h-12l-6 -39l-64 -475h152zM356 1823l107 -185h-160l-162 185h215z" />
<glyph unicode="&#xc1;" horiz-adv-x="765" d="M20 0l228 1505h270l227 -1505h-215l-41 307h-213l-40 -307h-216zM395 1016l-6 39h-12l-6 -39l-64 -475h152zM614 1823l-161 -185h-160l106 185h215z" />
<glyph unicode="&#xc2;" horiz-adv-x="765" d="M20 0l228 1505h270l227 -1505h-215l-41 307h-213l-40 -307h-216zM395 1016l-6 39h-12l-6 -39l-64 -475h152zM494 1823l141 -185h-189l-63 72l-61 -72h-189l141 185h220z" />
<glyph unicode="&#xc3;" horiz-adv-x="765" d="M20 0l228 1505h270l227 -1505h-215l-41 307h-213l-40 -307h-216zM395 1016l-6 39h-12l-6 -39l-64 -475h152zM293 1665q-23 0 -41.5 -5t-34.5 -11q-18 -8 -33 -17v152q14 10 33 18q16 8 34.5 14.5t41.5 6.5q47 0 90 -17.5t90 -21.5q23 0 41 5t35 11q18 8 33 17v-152 q-14 -12 -33 -20q-16 -8 -34.5 -13.5t-41.5 -5.5q-47 0 -89 18.5t-91 20.5z" />
<glyph unicode="&#xc4;" horiz-adv-x="765" d="M20 0l228 1505h270l227 -1505h-215l-41 307h-213l-40 -307h-216zM395 1016l-6 39h-12l-6 -39l-64 -475h152zM143 1839h191v-201h-191v201zM432 1839h191v-201h-191v201z" />
<glyph unicode="&#xc5;" horiz-adv-x="765" d="M20 0l228 1505h270l227 -1505h-215l-41 307h-213l-40 -307h-216zM395 1016l-6 39h-12l-6 -39l-64 -475h152zM231 1761q0 63 45.5 103.5t108.5 40.5t107.5 -40t44.5 -104q0 -63 -44 -103t-108 -40q-63 0 -108.5 40t-45.5 103zM309 1761q0 -29 23.5 -50t52.5 -21t52.5 21.5 t23.5 49.5q0 29 -23.5 50.5t-52.5 21.5t-52.5 -21.5t-23.5 -50.5z" />
<glyph unicode="&#xc6;" horiz-adv-x="1099" d="M553 307h-227l-90 -307h-220l420 1505h623v-227h-285v-395h205v-242h-205v-414h285v-227h-506v307zM393 541h160v514h-10z" />
<glyph unicode="&#xc7;" horiz-adv-x="708" d="M657 516v-207q-4 -92 -36 -164q-14 -31 -36 -59.5t-52.5 -52t-72.5 -36.5t-98 -13q-55 0 -98 13t-73.5 36.5t-51 52.5t-35.5 59q-33 72 -36 164v887q4 90 36 162q14 31 35 60.5t51.5 52t73.5 37t98 14.5t97.5 -14.5t73 -37t52 -52t36.5 -60.5q33 -72 36 -162v-207h-206 v207q0 31 -9 55q-8 20 -24.5 38t-50.5 18q-29 0 -44.5 -17.5t-23.5 -38.5q-8 -25 -10 -55v-887q2 -33 10 -55q8 -23 23.5 -39t44.5 -16q35 0 51 16t24 39t9 55v207h206zM440 -252l-45 -133h-104l41 133h-64v141h172v-141z" />
<glyph unicode="&#xc8;" horiz-adv-x="628" d="M82 1505h506v-227h-285v-395h205v-242h-205v-414h285v-227h-506v1505zM326 1823l106 -185h-160l-161 185h215z" />
<glyph unicode="&#xc9;" horiz-adv-x="628" d="M82 1505h506v-227h-285v-395h205v-242h-205v-414h285v-227h-506v1505zM557 1823l-162 -185h-159l106 185h215z" />
<glyph unicode="&#xca;" horiz-adv-x="628" d="M82 1505h506v-227h-285v-395h205v-242h-205v-414h285v-227h-506v1505zM444 1823l142 -185h-189l-63 72l-62 -72h-188l141 185h219z" />
<glyph unicode="&#xcb;" horiz-adv-x="628" d="M82 1505h506v-227h-285v-395h205v-242h-205v-414h285v-227h-506v1505zM94 1839h191v-201h-191v201zM383 1839h190v-201h-190v201z" />
<glyph unicode="&#xcc;" horiz-adv-x="401" d="M98 1505h221v-1505h-221v1505zM209 1823l106 -185h-159l-162 185h215z" />
<glyph unicode="&#xcd;" horiz-adv-x="401" d="M82 1505h221v-1505h-221v1505zM408 1823l-162 -185h-160l107 185h215z" />
<glyph unicode="&#xce;" horiz-adv-x="370" d="M74 1505h221v-1505h-221v1505zM295 1823l141 -185h-188l-64 72l-61 -72h-189l142 185h219z" />
<glyph unicode="&#xcf;" horiz-adv-x="372" d="M76 1505h221v-1505h-221v1505zM-53 1839h190v-201h-190v201zM236 1839h190v-201h-190v201z" />
<glyph unicode="&#xd0;" horiz-adv-x="761" d="M20 883h62v622h174q154 0 242 -34.5t132 -120.5t55 -231.5t11 -366.5t-11 -365.5t-55 -230.5t-132 -121t-242 -35h-174v655h-62v228zM303 883h84v-228h-84v-434q57 0 91 13.5t50.5 67.5t19.5 160.5t3 291.5q0 184 -3 289.5t-19.5 159.5t-50.5 67.5t-91 13.5v-401z" />
<glyph unicode="&#xd1;" horiz-adv-x="808" d="M315 784l-18 70h-12v-70v-784h-203v1505h197l215 -784l18 -70h12v70v784h203v-1505h-197zM315 1665q-23 0 -41 -5t-34 -11q-18 -8 -33 -17v152q14 10 33 18q16 8 34.5 14.5t40.5 6.5q47 0 90.5 -17.5t90.5 -21.5q23 0 41 5t34 11q18 8 33 17v-152q-14 -12 -33 -20 q-16 -8 -34.5 -13.5t-40.5 -5.5q-47 0 -89.5 18.5t-91.5 20.5z" />
<glyph unicode="&#xd2;" d="M657 309q-4 -92 -36 -164q-14 -31 -36 -59.5t-52.5 -52t-72.5 -36.5t-98 -13q-55 0 -98 13t-73.5 36.5t-51 52.5t-35.5 59q-33 72 -36 164v887q4 90 36 162q14 31 35 60.5t51.5 52t73.5 37t98 14.5t97.5 -14.5t73 -37t52 -52t36.5 -60.5q33 -72 36 -162v-887zM436 1196 q0 31 -8 55q-6 20 -21.5 38t-44.5 18t-44 -17.5t-21 -38.5q-8 -25 -8 -55v-887q0 -33 8 -55q6 -23 21.5 -39t43.5 -16q29 0 44.5 16t21.5 39q8 23 8 55v887zM336 1823l106 -185h-159l-162 185h215z" />
<glyph unicode="&#xd3;" d="M657 309q-4 -92 -36 -164q-14 -31 -36 -59.5t-52.5 -52t-72.5 -36.5t-98 -13q-55 0 -98 13t-73.5 36.5t-51 52.5t-35.5 59q-33 72 -36 164v887q4 90 36 162q14 31 35 60.5t51.5 52t73.5 37t98 14.5t97.5 -14.5t73 -37t52 -52t36.5 -60.5q33 -72 36 -162v-887zM436 1196 q0 31 -8 55q-6 20 -21.5 38t-44.5 18t-44 -17.5t-21 -38.5q-8 -25 -8 -55v-887q0 -33 8 -55q6 -23 21.5 -39t43.5 -16q29 0 44.5 16t21.5 39q8 23 8 55v887zM606 1823l-162 -185h-159l106 185h215z" />
<glyph unicode="&#xd4;" d="M657 309q-4 -92 -36 -164q-14 -31 -36 -59.5t-52.5 -52t-72.5 -36.5t-98 -13q-55 0 -98 13t-73.5 36.5t-51 52.5t-35.5 59q-33 72 -36 164v887q4 90 36 162q14 31 35 60.5t51.5 52t73.5 37t98 14.5t97.5 -14.5t73 -37t52 -52t36.5 -60.5q33 -72 36 -162v-887zM436 1196 q0 31 -8 55q-6 20 -21.5 38t-44.5 18t-44 -17.5t-21 -38.5q-8 -25 -8 -55v-887q0 -33 8 -55q6 -23 21.5 -39t43.5 -16q29 0 44.5 16t21.5 39q8 23 8 55v887zM473 1823l141 -185h-188l-64 72l-61 -72h-188l141 185h219z" />
<glyph unicode="&#xd5;" d="M657 309q-4 -92 -36 -164q-14 -31 -36 -59.5t-52.5 -52t-72.5 -36.5t-98 -13q-55 0 -98 13t-73.5 36.5t-51 52.5t-35.5 59q-33 72 -36 164v887q4 90 36 162q14 31 35 60.5t51.5 52t73.5 37t98 14.5t97.5 -14.5t73 -37t52 -52t36.5 -60.5q33 -72 36 -162v-887zM436 1196 q0 31 -8 55q-6 20 -21.5 38t-44.5 18t-44 -17.5t-21 -38.5q-8 -25 -8 -55v-887q0 -33 8 -55q6 -23 21.5 -39t43.5 -16q29 0 44.5 16t21.5 39q8 23 8 55v887zM272 1665q-23 0 -41 -5t-34 -11q-18 -8 -33 -17v152q14 10 33 18q16 8 34.5 14.5t40.5 6.5q47 0 90.5 -17.5 t90.5 -21.5q23 0 41 5t34 11q18 8 33 17v-152q-14 -12 -33 -20q-16 -8 -34.5 -13.5t-40.5 -5.5q-47 0 -89.5 18.5t-91.5 20.5z" />
<glyph unicode="&#xd6;" d="M657 309q-4 -92 -36 -164q-14 -31 -36 -59.5t-52.5 -52t-72.5 -36.5t-98 -13q-55 0 -98 13t-73.5 36.5t-51 52.5t-35.5 59q-33 72 -36 164v887q4 90 36 162q14 31 35 60.5t51.5 52t73.5 37t98 14.5t97.5 -14.5t73 -37t52 -52t36.5 -60.5q33 -72 36 -162v-887zM436 1196 q0 31 -8 55q-6 20 -21.5 38t-44.5 18t-44 -17.5t-21 -38.5q-8 -25 -8 -55v-887q0 -33 8 -55q6 -23 21.5 -39t43.5 -16q29 0 44.5 16t21.5 39q8 23 8 55v887zM123 1839h190v-201h-190v201zM412 1839h190v-201h-190v201z" />
<glyph unicode="&#xd8;" d="M59 -20l47 157q-16 31 -23 61.5t-11 55.5q-4 29 -4 55v887q4 90 36 162q14 31 35 60.5t51.5 52t73.5 37t98 14.5q49 0 88 -11.5t70 -31.5l15 47h122l-45 -150q16 -33 25.5 -64.5t13.5 -58.5q6 -31 6 -57v-887q-4 -92 -36 -164q-14 -31 -36 -59.5t-52.5 -52t-72.5 -36.5 t-98 -13q-51 0 -91 11t-68 32l-15 -47h-129zM362 199q29 0 44.5 16t21.5 39q8 23 8 55v488l-147 -488q0 -33 8 -55q6 -23 21 -39t44 -16zM289 727l147 479q0 8 -3 24.5t-10 34t-21.5 30t-39.5 12.5q-29 0 -44 -17.5t-21 -38.5q-8 -25 -8 -55v-469z" />
<glyph unicode="&#xd9;" horiz-adv-x="749" d="M670 1505v-1196q-4 -92 -37 -164q-14 -31 -36 -59.5t-52.5 -52t-72.5 -36.5t-97 -13t-98.5 13t-74 36.5t-51 52.5t-34.5 59q-33 72 -37 164v1196h221v-1196q0 -33 8 -55q6 -23 21.5 -39t44.5 -16t44 16t21 39q8 23 9 55v1196h221zM360 1823l107 -185h-160l-162 185h215z " />
<glyph unicode="&#xda;" horiz-adv-x="749" d="M670 1505v-1196q-4 -92 -37 -164q-14 -31 -36 -59.5t-52.5 -52t-72.5 -36.5t-97 -13t-98.5 13t-74 36.5t-51 52.5t-34.5 59q-33 72 -37 164v1196h221v-1196q0 -33 8 -55q6 -23 21.5 -39t44.5 -16t44 16t21 39q8 23 9 55v1196h221zM629 1823l-162 -185h-160l107 185h215z " />
<glyph unicode="&#xdb;" horiz-adv-x="749" d="M670 1505v-1196q-4 -92 -37 -164q-14 -31 -36 -59.5t-52.5 -52t-72.5 -36.5t-97 -13t-98.5 13t-74 36.5t-51 52.5t-34.5 59q-33 72 -37 164v1196h221v-1196q0 -33 8 -55q6 -23 21.5 -39t44.5 -16t44 16t21 39q8 23 9 55v1196h221zM485 1823l142 -185h-189l-63 72l-62 -72 h-188l141 185h219z" />
<glyph unicode="&#xdc;" horiz-adv-x="749" d="M670 1505v-1196q-4 -92 -37 -164q-14 -31 -36 -59.5t-52.5 -52t-72.5 -36.5t-97 -13t-98.5 13t-74 36.5t-51 52.5t-34.5 59q-33 72 -37 164v1196h221v-1196q0 -33 8 -55q6 -23 21.5 -39t44.5 -16t44 16t21 39q8 23 9 55v1196h221zM135 1839h191v-201h-191v201zM424 1839 h190v-201h-190v201z" />
<glyph unicode="&#xdd;" horiz-adv-x="704" d="M344 1024l6 -14h4l6 14l111 481h217l-225 -864v-641h-221v641l-226 864h217zM575 1823l-161 -185h-160l106 185h215z" />
<glyph unicode="&#xde;" d="M82 1505h219v-241h2q72 0 141.5 -21.5t125 -74t89 -139.5t33.5 -216t-33.5 -216t-89 -139t-125 -75t-141.5 -23v-360h-221v1505zM303 586q51 0 84 10t51.5 35.5t24.5 67.5t6 106q0 63 -6 107t-24.5 72t-51.5 41t-84 13v-452z" />
<glyph unicode="&#xdf;" horiz-adv-x="733" d="M346 1120q35 0 60.5 32t25.5 85q0 41 -20.5 70.5t-65.5 29.5q-39 0 -56.5 -30.5t-17.5 -71.5v-1235h-206v1235q0 57 16 109.5t51 91.5t87 62.5t126 23.5q70 0 121 -22.5t84 -61.5t49 -91.5t16 -109.5q0 -55 -23.5 -99t-64.5 -75q35 -20 62.5 -56t48 -94.5t31 -141.5 t10.5 -196q0 -186 -21.5 -299.5t-64.5 -175t-105.5 -81t-142.5 -19.5v193q31 0 55.5 13t40 54t23.5 117t8 198q0 131 -8 210t-23.5 122t-40 57.5t-55.5 14.5v141z" />
<glyph unicode="&#xe0;" horiz-adv-x="681" d="M252 291q0 -10 2 -27.5t8 -35t17.5 -30t29.5 -12.5q35 0 60.5 19.5t25.5 48.5v287q-76 -33 -109.5 -101.5t-33.5 -148.5zM49 260q0 94 24.5 161.5t61.5 114t80 77t82 51t65.5 36t32.5 31.5v37v86q0 14 -1 32.5t-6 34t-17.5 25.5t-32.5 10q-27 0 -39 -17t-16 -42t-4 -53 v-53h-207v47q0 61 21.5 115.5t58 95.5t88 64.5t110.5 23.5q51 0 96.5 -19.5t80 -53.5t55 -80t20.5 -101v-351v-337q0 -76 4 -117t10 -78h-202q-14 16 -16.5 48t-2.5 42h-14q-8 -14 -22.5 -32.5t-36 -35t-49 -27.5t-58.5 -11q-20 0 -49 10t-54.5 39.5t-44 84t-18.5 142.5z M317 1489l107 -184h-160l-162 184h215z" />
<glyph unicode="&#xe1;" horiz-adv-x="681" d="M252 291q0 -10 2 -27.5t8 -35t17.5 -30t29.5 -12.5q35 0 60.5 19.5t25.5 48.5v287q-76 -33 -109.5 -101.5t-33.5 -148.5zM49 260q0 94 24.5 161.5t61.5 114t80 77t82 51t65.5 36t32.5 31.5v37v86q0 14 -1 32.5t-6 34t-17.5 25.5t-32.5 10q-27 0 -39 -17t-16 -42t-4 -53 v-53h-207v47q0 61 21.5 115.5t58 95.5t88 64.5t110.5 23.5q51 0 96.5 -19.5t80 -53.5t55 -80t20.5 -101v-351v-337q0 -76 4 -117t10 -78h-202q-14 16 -16.5 48t-2.5 42h-14q-8 -14 -22.5 -32.5t-36 -35t-49 -27.5t-58.5 -11q-20 0 -49 10t-54.5 39.5t-44 84t-18.5 142.5z M586 1489l-162 -184h-160l107 184h215z" />
<glyph unicode="&#xe2;" horiz-adv-x="681" d="M252 291q0 -10 2 -27.5t8 -35t17.5 -30t29.5 -12.5q35 0 60.5 19.5t25.5 48.5v287q-76 -33 -109.5 -101.5t-33.5 -148.5zM49 260q0 94 24.5 161.5t61.5 114t80 77t82 51t65.5 36t32.5 31.5v37v86q0 14 -1 32.5t-6 34t-17.5 25.5t-32.5 10q-27 0 -39 -17t-16 -42t-4 -53 v-53h-207v47q0 61 21.5 115.5t58 95.5t88 64.5t110.5 23.5q51 0 96.5 -19.5t80 -53.5t55 -80t20.5 -101v-351v-337q0 -76 4 -117t10 -78h-202q-14 16 -16.5 48t-2.5 42h-14q-8 -14 -22.5 -32.5t-36 -35t-49 -27.5t-58.5 -11q-20 0 -49 10t-54.5 39.5t-44 84t-18.5 142.5z M451 1489l141 -184h-189l-63 71l-61 -71h-189l141 184h220z" />
<glyph unicode="&#xe3;" horiz-adv-x="681" d="M252 291q0 -10 2 -27.5t8 -35t17.5 -30t29.5 -12.5q35 0 60.5 19.5t25.5 48.5v287q-76 -33 -109.5 -101.5t-33.5 -148.5zM49 260q0 94 24.5 161.5t61.5 114t80 77t82 51t65.5 36t32.5 31.5v37v86q0 14 -1 32.5t-6 34t-17.5 25.5t-32.5 10q-27 0 -39 -17t-16 -42t-4 -53 v-53h-207v47q0 61 21.5 115.5t58 95.5t88 64.5t110.5 23.5q51 0 96.5 -19.5t80 -53.5t55 -80t20.5 -101v-351v-337q0 -76 4 -117t10 -78h-202q-14 16 -16.5 48t-2.5 42h-14q-8 -14 -22.5 -32.5t-36 -35t-49 -27.5t-58.5 -11q-20 0 -49 10t-54.5 39.5t-44 84t-18.5 142.5z M252 1337q-23 0 -41 -5t-35 -11q-18 -8 -33 -16v151q14 10 33 19q16 8 34.5 14t41.5 6q47 0 90 -17.5t90 -21.5q23 0 41.5 5t34.5 12q18 8 33 16v-152q-14 -12 -33 -20q-16 -8 -34.5 -13.5t-41.5 -5.5q-47 0 -89 18.5t-91 20.5z" />
<glyph unicode="&#xe4;" horiz-adv-x="681" d="M252 291q0 -10 2 -27.5t8 -35t17.5 -30t29.5 -12.5q35 0 60.5 19.5t25.5 48.5v287q-76 -33 -109.5 -101.5t-33.5 -148.5zM49 260q0 94 24.5 161.5t61.5 114t80 77t82 51t65.5 36t32.5 31.5v37v86q0 14 -1 32.5t-6 34t-17.5 25.5t-32.5 10q-27 0 -39 -17t-16 -42t-4 -53 v-53h-207v47q0 61 21.5 115.5t58 95.5t88 64.5t110.5 23.5q51 0 96.5 -19.5t80 -53.5t55 -80t20.5 -101v-351v-337q0 -76 4 -117t10 -78h-202q-14 16 -16.5 48t-2.5 42h-14q-8 -14 -22.5 -32.5t-36 -35t-49 -27.5t-58.5 -11q-20 0 -49 10t-54.5 39.5t-44 84t-18.5 142.5z M102 1505h191v-200h-191v200zM391 1505h191v-200h-191v200z" />
<glyph unicode="&#xe5;" horiz-adv-x="681" d="M252 291q0 -10 2 -27.5t8 -35t17.5 -30t29.5 -12.5q35 0 60.5 19.5t25.5 48.5v287q-76 -33 -109.5 -101.5t-33.5 -148.5zM49 260q0 94 24.5 161.5t61.5 114t80 77t82 51t65.5 36t32.5 31.5v37v86q0 14 -1 32.5t-6 34t-17.5 25.5t-32.5 10q-27 0 -39 -17t-16 -42t-4 -53 v-53h-207v47q0 61 21.5 115.5t58 95.5t88 64.5t110.5 23.5q51 0 96.5 -19.5t80 -53.5t55 -80t20.5 -101v-351v-337q0 -76 4 -117t10 -78h-202q-14 16 -16.5 48t-2.5 42h-14q-8 -14 -22.5 -32.5t-36 -35t-49 -27.5t-58.5 -11q-20 0 -49 10t-54.5 39.5t-44 84t-18.5 142.5z M188 1421q0 63 45.5 103.5t108.5 40.5t107.5 -40t44.5 -104q0 -63 -44 -103t-108 -40q-63 0 -108.5 40t-45.5 103zM266 1421q0 -29 23.5 -50t52.5 -21t52.5 21.5t23.5 49.5q0 29 -23.5 50.5t-52.5 21.5t-52.5 -21.5t-23.5 -50.5z" />
<glyph unicode="&#xe6;" horiz-adv-x="989" d="M930 401v-129q-4 -82 -33 -145q-25 -53 -80 -98t-155 -45q-94 0 -146.5 39.5t-79.5 91.5q-43 -55 -98 -93t-123 -38q-20 0 -49 10t-54.5 39.5t-44 84t-18.5 142.5q0 94 24.5 161.5t61.5 114t80 77t82 51t65.5 36t32.5 31.5v123q0 14 -1 32.5t-6 34t-17.5 25.5t-32.5 10 q-27 0 -39 -17t-16 -42t-4 -53v-53h-207v47q0 61 21.5 115.5t58 95.5t88 64.5t110.5 23.5q84 0 152 -52q29 23 68.5 37.5t93.5 14.5q100 0 154 -46.5t79 -99.5q29 -63 33 -143v-326h-342v-243q2 -33 10 -58q8 -23 22.5 -39t43.5 -16t44 16.5t21 38.5q8 25 8 58v122h193z M252 291q0 -10 2 -27.5t8 -35t17.5 -30t29.5 -12.5q35 0 60.5 19.5t25.5 48.5v287q-76 -33 -109.5 -101.5t-33.5 -148.5zM588 684h149v158q0 33 -8 57q-6 23 -21.5 40t-43.5 17q-29 0 -43.5 -17t-22.5 -40q-8 -25 -10 -57v-158z" />
<glyph unicode="&#xe7;" horiz-adv-x="645" d="M272 258q0 -31 8.5 -60.5t49.5 -29.5q35 0 47 19.5t12 70.5v156h207v-109q0 -94 -17.5 -155.5t-51 -98.5t-83 -52t-114.5 -15q-55 0 -104.5 16t-84.5 55t-55 102.5t-20 157.5v490q0 94 20 157.5t55 102.5t84 55.5t105 16.5q66 0 115 -15.5t82.5 -52.5t51 -98.5 t17.5 -155.5v-88h-207v135q0 51 -12 70.5t-47 19.5q-41 0 -49.5 -29.5t-8.5 -60.5v-604zM410 -252l-45 -133h-105l41 133h-63v141h172v-141z" />
<glyph unicode="&#xe8;" horiz-adv-x="659" d="M600 401v-129q-4 -82 -33 -145q-25 -53 -80 -98t-155 -45t-154.5 46t-79.5 101q-29 66 -32 148v563q4 82 34 147q25 55 79 101.5t155 46.5q100 0 154.5 -46.5t78.5 -99.5q29 -63 33 -143v-326h-342v-243q2 -33 10 -58q8 -23 22.5 -39t43.5 -16t44 16.5t21 38.5q8 25 9 58 v122h192zM258 684h150v158q0 33 -9 57q-6 23 -21.5 40t-43.5 17q-29 0 -43.5 -17t-22.5 -40q-8 -25 -10 -57v-158zM317 1489l107 -184h-160l-162 184h215z" />
<glyph unicode="&#xe9;" horiz-adv-x="659" d="M600 401v-129q-4 -82 -33 -145q-25 -53 -80 -98t-155 -45t-154.5 46t-79.5 101q-29 66 -32 148v563q4 82 34 147q25 55 79 101.5t155 46.5q100 0 154.5 -46.5t78.5 -99.5q29 -63 33 -143v-326h-342v-243q2 -33 10 -58q8 -23 22.5 -39t43.5 -16t44 16.5t21 38.5q8 25 9 58 v122h192zM258 684h150v158q0 33 -9 57q-6 23 -21.5 40t-43.5 17q-29 0 -43.5 -17t-22.5 -40q-8 -25 -10 -57v-158zM586 1489l-162 -184h-160l107 184h215z" />
<glyph unicode="&#xea;" horiz-adv-x="659" d="M600 401v-129q-4 -82 -33 -145q-25 -53 -80 -98t-155 -45t-154.5 46t-79.5 101q-29 66 -32 148v563q4 82 34 147q25 55 79 101.5t155 46.5q100 0 154.5 -46.5t78.5 -99.5q29 -63 33 -143v-326h-342v-243q2 -33 10 -58q8 -23 22.5 -39t43.5 -16t44 16.5t21 38.5q8 25 9 58 v122h192zM258 684h150v158q0 33 -9 57q-6 23 -21.5 40t-43.5 17q-29 0 -43.5 -17t-22.5 -40q-8 -25 -10 -57v-158zM440 1489l142 -184h-189l-63 71l-62 -71h-188l141 184h219z" />
<glyph unicode="&#xeb;" horiz-adv-x="659" d="M600 401v-129q-4 -82 -33 -145q-25 -53 -80 -98t-155 -45t-154.5 46t-79.5 101q-29 66 -32 148v563q4 82 34 147q25 55 79 101.5t155 46.5q100 0 154.5 -46.5t78.5 -99.5q29 -63 33 -143v-326h-342v-243q2 -33 10 -58q8 -23 22.5 -39t43.5 -16t44 16.5t21 38.5q8 25 9 58 v122h192zM258 684h150v158q0 33 -9 57q-6 23 -21.5 40t-43.5 17q-29 0 -43.5 -17t-22.5 -40q-8 -25 -10 -57v-158zM90 1505h191v-200h-191v200zM379 1505h190v-200h-190v200z" />
<glyph unicode="&#xec;" horiz-adv-x="370" d="M82 0v1120h207v-1120h-207zM182 1489l107 -184h-160l-162 184h215z" />
<glyph unicode="&#xed;" horiz-adv-x="370" d="M82 0v1120h207v-1120h-207zM403 1489l-161 -184h-160l106 184h215z" />
<glyph unicode="&#xee;" horiz-adv-x="370" d="M82 0v1120h207v-1120h-207zM295 1489l141 -184h-188l-64 71l-61 -71h-189l142 184h219z" />
<glyph unicode="&#xef;" horiz-adv-x="372" d="M82 0v1120h207v-1120h-207zM-53 1505h190v-200h-190v200zM236 1505h190v-200h-190v200z" />
<glyph unicode="&#xf0;" horiz-adv-x="673" d="M379 1507q8 -10 16 -18t18 -20l19 -23l94 82l56 -66l-101 -88q47 -74 86 -183.5t39 -262.5v-656q-4 -82 -33 -145q-25 -53 -79 -98t-154 -45t-153.5 46t-77.5 101q-29 66 -33 148v579q0 14 2 60.5t17.5 94.5t50 86t102.5 38q35 0 74.5 -21.5t80.5 -56.5q-8 63 -21 113.5 t-30 89.5l-82 -72l-55 63l100 88l-18 29l-14 21q-8 8 -13 16zM412 842q2 33 -6 57q-6 23 -21.5 40t-44.5 17t-43 -17t-21 -40q-8 -25 -6 -57v-563q-2 -33 6 -58q6 -23 20.5 -39t43.5 -16t44 16.5t22 38.5q8 25 6 58v563z" />
<glyph unicode="&#xf1;" horiz-adv-x="690" d="M356 936q-16 0 -27.5 -8t-21.5 -19q-10 -12 -18 -26v-883h-207v1120h207v-94q6 4 23.5 21.5t40 38t50 36t54.5 15.5q41 0 70.5 -21.5t48 -53.5t27.5 -71t9 -73v-918h-206v887q0 33 -16 41t-34 8zM256 1337q-23 0 -41 -5t-35 -11q-18 -8 -33 -16v151q14 10 33 19 q16 8 34.5 14t41.5 6q47 0 90 -17.5t90 -21.5q23 0 41.5 5t34.5 12q18 8 33 16v-152q-14 -12 -33 -20q-16 -8 -34.5 -13.5t-41.5 -5.5q-47 0 -89 18.5t-91 20.5z" />
<glyph unicode="&#xf2;" horiz-adv-x="657" d="M594 272q-4 -82 -33 -145q-25 -53 -79 -98t-154 -45t-153.5 46t-78.5 101q-29 66 -33 148v563q4 82 33 147q25 55 78 101.5t154 46.5q100 0 154.5 -46.5t78.5 -99.5q29 -63 33 -143v-576zM399 842q2 33 -6 57q-6 23 -21.5 40t-43.5 17q-29 0 -43.5 -17t-20.5 -40 q-8 -25 -6 -57v-563q-2 -33 6 -58q6 -23 20.5 -39t43.5 -16t44 16.5t21 38.5q8 25 6 58v563zM313 1489l107 -184h-160l-162 184h215z" />
<glyph unicode="&#xf3;" horiz-adv-x="657" d="M594 272q-4 -82 -33 -145q-25 -53 -79 -98t-154 -45t-153.5 46t-78.5 101q-29 66 -33 148v563q4 82 33 147q25 55 78 101.5t154 46.5q100 0 154.5 -46.5t78.5 -99.5q29 -63 33 -143v-576zM399 842q2 33 -6 57q-6 23 -21.5 40t-43.5 17q-29 0 -43.5 -17t-20.5 -40 q-8 -25 -6 -57v-563q-2 -33 6 -58q6 -23 20.5 -39t43.5 -16t44 16.5t21 38.5q8 25 6 58v563zM582 1489l-162 -184h-160l107 184h215z" />
<glyph unicode="&#xf4;" horiz-adv-x="657" d="M594 272q-4 -82 -33 -145q-25 -53 -79 -98t-154 -45t-153.5 46t-78.5 101q-29 66 -33 148v563q4 82 33 147q25 55 78 101.5t154 46.5q100 0 154.5 -46.5t78.5 -99.5q29 -63 33 -143v-576zM399 842q2 33 -6 57q-6 23 -21.5 40t-43.5 17q-29 0 -43.5 -17t-20.5 -40 q-8 -25 -6 -57v-563q-2 -33 6 -58q6 -23 20.5 -39t43.5 -16t44 16.5t21 38.5q8 25 6 58v563zM438 1489l142 -184h-189l-63 71l-62 -71h-188l141 184h219z" />
<glyph unicode="&#xf5;" horiz-adv-x="657" d="M594 272q-4 -82 -33 -145q-25 -53 -79 -98t-154 -45t-153.5 46t-78.5 101q-29 66 -33 148v563q4 82 33 147q25 55 78 101.5t154 46.5q100 0 154.5 -46.5t78.5 -99.5q29 -63 33 -143v-576zM399 842q2 33 -6 57q-6 23 -21.5 40t-43.5 17q-29 0 -43.5 -17t-20.5 -40 q-8 -25 -6 -57v-563q-2 -33 6 -58q6 -23 20.5 -39t43.5 -16t44 16.5t21 38.5q8 25 6 58v563zM240 1337q-23 0 -41.5 -5t-34.5 -11q-18 -8 -33 -16v151q14 10 33 19q16 8 34.5 14t41.5 6q47 0 90 -17.5t90 -21.5q23 0 41 5t35 12q18 8 32 16v-152q-14 -12 -32 -20 q-16 -8 -35 -13.5t-41 -5.5q-47 0 -89 18.5t-91 20.5z" />
<glyph unicode="&#xf6;" horiz-adv-x="657" d="M594 272q-4 -82 -33 -145q-25 -53 -79 -98t-154 -45t-153.5 46t-78.5 101q-29 66 -33 148v563q4 82 33 147q25 55 78 101.5t154 46.5q100 0 154.5 -46.5t78.5 -99.5q29 -63 33 -143v-576zM399 842q2 33 -6 57q-6 23 -21.5 40t-43.5 17q-29 0 -43.5 -17t-20.5 -40 q-8 -25 -6 -57v-563q-2 -33 6 -58q6 -23 20.5 -39t43.5 -16t44 16.5t21 38.5q8 25 6 58v563zM90 1505h191v-200h-191v200zM379 1505h190v-200h-190v200z" />
<glyph unicode="&#xf8;" horiz-adv-x="657" d="M125 -78l31 121q-35 33 -54.5 73t-27.5 77q-10 41 -11 86v563q4 82 33 147q25 55 78 101.5t154 46.5q31 0 57.5 -5.5t48.5 -13.5l21 80h75l-30 -121q35 -33 53 -71.5t29 -73.5q10 -41 12 -84v-576q-4 -82 -33 -145q-25 -53 -79 -98t-154 -45q-57 0 -103 16l-20 -78h-80z M258 436l125 486q-8 16 -20.5 25t-34.5 9q-29 0 -43.5 -17t-20.5 -40q-8 -25 -6 -57v-406zM328 166q29 0 44 16.5t21 38.5q8 25 6 58v403l-125 -485q17 -31 54 -31z" />
<glyph unicode="&#xf9;" horiz-adv-x="690" d="M334 184q16 0 27.5 8.5t21.5 18.5t18 27v882h207v-1120h-207v94q-6 -4 -23.5 -21.5t-40 -38t-50 -35.5t-54.5 -15q-41 0 -70.5 21.5t-48 53t-27.5 70.5t-9 74v917h207v-887q0 -33 15.5 -41t33.5 -8zM328 1489l106 -184h-160l-161 184h215z" />
<glyph unicode="&#xfa;" horiz-adv-x="690" d="M334 184q16 0 27.5 8.5t21.5 18.5t18 27v882h207v-1120h-207v94q-6 -4 -23.5 -21.5t-40 -38t-50 -35.5t-54.5 -15q-41 0 -70.5 21.5t-48 53t-27.5 70.5t-9 74v917h207v-887q0 -33 15.5 -41t33.5 -8zM596 1489l-162 -184h-160l107 184h215z" />
<glyph unicode="&#xfb;" horiz-adv-x="690" d="M334 184q16 0 27.5 8.5t21.5 18.5t18 27v882h207v-1120h-207v94q-6 -4 -23.5 -21.5t-40 -38t-50 -35.5t-54.5 -15q-41 0 -70.5 21.5t-48 53t-27.5 70.5t-9 74v917h207v-887q0 -33 15.5 -41t33.5 -8zM455 1489l141 -184h-188l-64 71l-61 -71h-189l142 184h219z" />
<glyph unicode="&#xfc;" horiz-adv-x="690" d="M334 184q16 0 27.5 8.5t21.5 18.5t18 27v882h207v-1120h-207v94q-6 -4 -23.5 -21.5t-40 -38t-50 -35.5t-54.5 -15q-41 0 -70.5 21.5t-48 53t-27.5 70.5t-9 74v917h207v-887q0 -33 15.5 -41t33.5 -8zM106 1505h191v-200h-191v200zM395 1505h191v-200h-191v200z" />
<glyph unicode="&#xfd;" horiz-adv-x="634" d="M33 -213q4 -2 12 -2q8 -2 37 -2q33 2 57.5 20.5t41 44t25.5 57.5t9 62l-190 1153h202l82 -688l4 -57h9l4 57l82 688h202l-198 -1204q-8 -59 -31 -115.5t-59.5 -101.5t-86 -72.5t-110.5 -27.5h-25q-14 0 -30 2q-18 0 -37 2v184zM553 1489l-162 -184h-160l107 184h215z" />
<glyph unicode="&#xfe;" horiz-adv-x="686" d="M82 1505h207v-458q27 25 53 45q23 16 52.5 30.5t58.5 14.5q43 0 72.5 -21.5t49 -53.5t28.5 -71t9 -73v-715q0 -35 -9 -74t-28.5 -70.5t-49 -53t-72.5 -21.5q-29 0 -58.5 14t-52.5 31q-27 20 -53 45v-459h-207v1890zM289 246q0 -25 19.5 -46.5t41.5 -21.5q23 0 39.5 19.5 t16.5 48.5v628q0 29 -16.5 48.5t-39.5 19.5t-42 -19.5t-19 -48.5v-628z" />
<glyph unicode="&#xff;" horiz-adv-x="634" d="M33 -213q4 -2 12 -2q8 -2 37 -2q33 2 57.5 20.5t41 44t25.5 57.5t9 62l-190 1153h202l82 -688l4 -57h9l4 57l82 688h202l-198 -1204q-8 -59 -31 -115.5t-59.5 -101.5t-86 -72.5t-110.5 -27.5h-25q-14 0 -30 2q-18 0 -37 2v184zM78 1505h190v-200h-190v200zM367 1505h190 v-200h-190v200z" />
<glyph unicode="&#x152;" horiz-adv-x="983" d="M362 0q-55 0 -98 13.5t-73.5 35t-51 49t-35.5 56.5q-33 68 -36 155v887q4 86 36 154q14 29 35 57.5t51.5 50t73.5 34.5t98 13h580v-227h-285v-395h205v-242h-205v-414h285v-227h-580zM436 1210q0 10 -3 26.5t-11 32t-22.5 27t-37.5 11.5q-29 0 -44 -17.5t-21 -38.5 q-8 -25 -8 -55v-887q0 -33 8 -55q6 -23 21.5 -39t43.5 -16q29 0 44.5 16t21.5 39q8 23 8 55v901z" />
<glyph unicode="&#x153;" horiz-adv-x="995" d="M936 401v-129q-4 -82 -33 -145q-25 -53 -80 -98t-155 -45q-57 0 -99.5 15t-70.5 42q-29 -25 -71 -41t-99 -16q-100 0 -153.5 46t-78.5 101q-29 66 -33 148v563q4 82 33 147q25 55 78 101.5t154 46.5q59 0 101 -16.5t71 -43.5q29 27 69.5 43.5t100.5 16.5 q100 0 154.5 -46.5t78.5 -99.5q29 -63 33 -143v-326h-342v-250q0 -6 2 -23.5t10 -35.5t23.5 -32.5t40.5 -14.5q29 0 44 16.5t21 38.5q8 25 8 58v122h193zM399 842q2 33 -6 57q-6 23 -21.5 40t-43.5 17q-29 0 -43.5 -17t-20.5 -40q-8 -25 -6 -57v-563q-2 -33 6 -58 q6 -23 20.5 -39t43.5 -16t44 16.5t21 38.5q8 25 6 58v563zM594 684h149v158q0 33 -8 57q-6 23 -21.5 40t-43.5 17q-25 0 -40.5 -14t-23.5 -32.5t-10 -36t-2 -25.5v-164z" />
<glyph unicode="&#x178;" horiz-adv-x="704" d="M344 1024l6 -14h4l6 14l111 481h217l-225 -864v-641h-221v641l-226 864h217zM113 1839h190v-201h-190v201zM401 1839h191v-201h-191v201z" />
<glyph unicode="&#x2c6;" horiz-adv-x="1021" d="M621 1489l141 -184h-189l-63 71l-61 -71h-189l141 184h220z" />
<glyph unicode="&#x2dc;" horiz-adv-x="1024" d="M422 1337q-23 0 -41.5 -5t-34.5 -11q-18 -8 -33 -16v151q14 10 33 19q16 8 34.5 14t41.5 6q47 0 90 -17.5t90 -21.5q23 0 41.5 5t34.5 12q18 8 33 16v-152q-14 -12 -33 -20q-16 -8 -34.5 -13.5t-41.5 -5.5q-47 0 -89 18.5t-91 20.5z" />
<glyph unicode="&#x2000;" horiz-adv-x="952" />
<glyph unicode="&#x2001;" horiz-adv-x="1904" />
<glyph unicode="&#x2002;" horiz-adv-x="952" />
<glyph unicode="&#x2003;" horiz-adv-x="1904" />
<glyph unicode="&#x2004;" horiz-adv-x="634" />
<glyph unicode="&#x2005;" horiz-adv-x="475" />
<glyph unicode="&#x2006;" horiz-adv-x="317" />
<glyph unicode="&#x2007;" horiz-adv-x="317" />
<glyph unicode="&#x2008;" horiz-adv-x="237" />
<glyph unicode="&#x2009;" horiz-adv-x="380" />
<glyph unicode="&#x200a;" horiz-adv-x="104" />
<glyph unicode="&#x2010;" horiz-adv-x="444" d="M74 649h297v-194h-297v194z" />
<glyph unicode="&#x2011;" horiz-adv-x="444" d="M74 649h297v-194h-297v194z" />
<glyph unicode="&#x2012;" horiz-adv-x="444" d="M74 649h297v-194h-297v194z" />
<glyph unicode="&#x2013;" horiz-adv-x="806" d="M74 844h659v-195h-659v195z" />
<glyph unicode="&#x2014;" horiz-adv-x="972" d="M74 844h825v-195h-825v195z" />
<glyph unicode="&#x2018;" horiz-adv-x="309" d="M49 1239l113 266h102l-71 -266h71v-227h-215v227z" />
<glyph unicode="&#x2019;" horiz-adv-x="309" d="M260 1278l-113 -266h-102l72 266h-72v227h215v-227z" />
<glyph unicode="&#x201a;" horiz-adv-x="309" d="M260 0l-113 -266h-102l72 266h-72v227h215v-227z" />
<glyph unicode="&#x201c;" horiz-adv-x="624" d="M356 1239l113 266h102l-71 -266h71v-227h-215v227zM53 1239l113 266h102l-71 -266h71v-227h-215v227z" />
<glyph unicode="&#x201d;" horiz-adv-x="624" d="M268 1278l-112 -266h-103l72 266h-72v227h215v-227zM571 1278l-112 -266h-103l72 266h-72v227h215v-227z" />
<glyph unicode="&#x201e;" horiz-adv-x="624" d="M268 0l-112 -266h-103l72 266h-72v227h215v-227zM571 0l-112 -266h-103l72 266h-72v227h215v-227z" />
<glyph unicode="&#x2022;" horiz-adv-x="663" d="M82 817q0 51 19.5 96t53 79t80 53.5t99.5 19.5q51 0 96 -19.5t79 -53.5t53.5 -79t19.5 -96q0 -53 -19.5 -99t-53.5 -80t-79 -53.5t-96 -19.5q-53 0 -99.5 19.5t-80 53.5t-53 80t-19.5 99z" />
<glyph unicode="&#x2026;" horiz-adv-x="964" d="M53 227h215v-227h-215v227zM375 227h215v-227h-215v227zM696 227h215v-227h-215v227z" />
<glyph unicode="&#x202f;" horiz-adv-x="380" />
<glyph unicode="&#x2039;" horiz-adv-x="1058" d="M74 809l911 475v-199l-698 -356l698 -356v-199l-911 475v160z" />
<glyph unicode="&#x203a;" horiz-adv-x="1058" d="M985 649l-911 -475v199l698 356l-698 356v199l911 -475v-160z" />
<glyph unicode="&#x205f;" horiz-adv-x="475" />
<glyph unicode="&#x20ac;" horiz-adv-x="813" d="M53 958h107v238q4 90 37 162q14 31 34.5 60.5t51 52t73.5 37t99 14.5q55 0 97 -14.5t72.5 -37t52 -52t36.5 -60.5q33 -72 37 -162v-84h-207v84q0 31 -8 55q-8 20 -24.5 38t-51.5 18q-29 0 -44.5 -17.5t-23.5 -38.5q-8 -25 -10 -55v-238h233v-137h-233v-137h233v-137h-233 v-238q2 -33 10 -55q8 -23 23.5 -39t44.5 -16q35 0 51 16t25 39q8 23 8 55v84h207v-84q-4 -92 -37 -164q-14 -31 -36 -59.5t-52.5 -52t-72.5 -36.5t-97 -13t-98.5 13t-74 36.5t-51 52.5t-34.5 59q-33 72 -37 164v238h-107v137h107v137h-107v137z" />
<glyph unicode="&#x2122;" horiz-adv-x="937" d="M74 1401v104h321v-104h-104v-580h-113v580h-104zM623 821l-80 449v-449h-103v684h138l67 -319h6l68 319h137v-684h-104v449l-78 -449h-51z" />
<glyph unicode="&#xe000;" horiz-adv-x="1120" d="M0 1120h1120v-1120h-1120v1120z" />
<glyph unicode="&#xfb01;" horiz-adv-x="772" d="M483 0v934h-151v-934h-207v934h-105v186h105v31q0 43 3 106.5t26.5 122t76 99.5t148.5 41q29 0 55.5 -2t46.5 -7q23 -4 45 -6v-184q-12 2 -28 6q-14 2 -35 4t-47 2q-35 0 -51.5 -21.5t-24.5 -51t-8 -61.5v-50v-29h358v-1120h-207z" />
<glyph unicode="&#xfb02;" horiz-adv-x="772" d="M483 0v1329q-14 2 -29.5 3t-37.5 1q-35 0 -51.5 -21.5t-24.5 -51t-8 -61.5v-50v-29h104v-186h-104v-934h-207v934h-105v186h105v31q0 43 3 106.5t26.5 122t76 99.5t148.5 41q29 0 55.5 -2t46.5 -7q23 -4 45 -6h164v-1505h-207z" />
<glyph unicode="&#xfb03;" horiz-adv-x="1320" d="M1032 0v1120h207v-1120h-207zM1032 1505h207v-207h-207v207zM600 0v934h-105v186h105v17v14q0 43 4 105.5t25.5 120t69.5 97t138 39.5q25 0 42.5 -2t29.5 -6l25 -6v-178q-10 2 -19 4q-20 4 -43 4q-27 0 -40 -20.5t-19 -50t-6 -60.5v-49v-16v-13h104v-186h-104v-934h-207z M125 0v934h-105v186h105v17v14q0 43 4 105.5t25.5 120t69.5 97t138 39.5q25 0 42.5 -2t29.5 -6l25 -6v-178q-10 2 -19 4q-20 4 -43 4q-27 0 -40 -20.5t-19 -50t-6 -60.5v-49v-16v-13h104v-186h-104v-934h-207z" />
<glyph unicode="&#xfb04;" horiz-adv-x="1320" d="M1032 0v1505h207v-1505h-207zM600 0v934h-105v186h105v17v14q0 43 4 105.5t25.5 120t69.5 97t138 39.5q25 0 42.5 -2t29.5 -6l25 -6v-178q-10 2 -19 4q-20 4 -43 4q-27 0 -40 -20.5t-19 -50t-6 -60.5v-49v-16v-13h104v-186h-104v-934h-207zM125 0v934h-105v186h105v17v14 q0 43 4 105.5t25.5 120t69.5 97t138 39.5q25 0 42.5 -2t29.5 -6l25 -6v-178q-10 2 -19 4q-20 4 -43 4q-27 0 -40 -20.5t-19 -50t-6 -60.5v-49v-16v-13h104v-186h-104v-934h-207z" />
</font>
</defs>
</svg>
